<?xml version="1.0" encoding="UTF-8" standalone="no"?>
<svg
   width="200"
   height="200"
   viewBox="0 0 52.916 52.916"
   version="1.1"
   id="cogitsec_logo"
   xmlns="http://www.w3.org/2000/svg">
  <defs
     id="defs2">
    <linearGradient
       id="gradient1"
       x1="0%"
       y1="0%"
       x2="100%"
       y2="100%">
      <stop
         offset="0%"
         style="stop-color:#6a11cb;stop-opacity:1" />
      <stop
         offset="100%"
         style="stop-color:#2575fc;stop-opacity:1" />
    </linearGradient>
  </defs>
  <g
     id="layer1">
    <!-- Background Shield -->
    <path
       id="shield"
       d="M 26.458,2.646 C 20.637,8.467 10.583,10.583 10.583,10.583 v 15.875 c 0,10.583 15.875,23.812 15.875,23.812 0,0 15.875,-13.229 15.875,-23.812 V 10.583 c 0,0 -10.054,-2.117 -15.875,-7.937 z"
       style="fill:url(#gradient1);stroke:#ffffff;stroke-width:1.058;stroke-linecap:round;stroke-linejoin:round" />
    
    <!-- Cogwheel -->
    <circle
       style="fill:none;stroke:#ffffff;stroke-width:1.058;stroke-linecap:round;stroke-linejoin:round"
       id="cogwheel"
       cx="26.458"
       cy="26.458"
       r="7.937" />
    
    <!-- Cogwheel teeth -->
    <path
       id="teeth"
       d="m 26.458,15.875 v 4.233 m 0,12.7 v 4.233 m 10.583,-10.583 h -4.233 m -12.7,0 H 15.875 m 7.504,-7.504 4.233,-4.233 m -4.233,19.241 4.233,4.233 m 0,-19.241 -4.233,-4.233 m 4.233,19.241 -4.233,4.233"
       style="fill:none;stroke:#ffffff;stroke-width:1.058;stroke-linecap:round;stroke-linejoin:round" />
    
    <!-- Lock symbol -->
    <rect
       style="fill:#ffffff;stroke:none;stroke-width:0.265"
       id="lock"
       width="5.291"
       height="4.762"
       x="23.812"
       y="24.871"
       rx="1.058"
       ry="1.058" />
    <rect
       style="fill:#ffffff;stroke:none;stroke-width:0.265"
       id="keyhole"
       width="1.058"
       height="2.117"
       x="25.929"
       y="26.194"
       rx="0.529"
       ry="0.529" />
    <path
       id="lock_top"
       d="m 23.812,25.4 v -2.117 a 2.646,2.646 0 0 1 5.292,0 v 2.117"
       style="fill:none;stroke:#ffffff;stroke-width:1.058;stroke-linecap:round;stroke-linejoin:round" />
  </g>
</svg> 